<svg width="89" height="20" viewBox="0 0 89 20" fill="none" xmlns="http://www.w3.org/2000/svg">
<g clip-path="url(#clip0_803_1453)">
<path d="M9.95813 14.5321L5.0936 17.0897L6.02284 11.6726L2.08203 7.83666L7.52035 7.04849L9.95262 2.12012L12.3849 7.04849L17.8232 7.83666L13.8824 11.6726L14.8116 17.0897L9.95813 14.5321Z" stroke="#F64850" stroke-width="1.57632" stroke-linecap="round" stroke-linejoin="round"/>
<path d="M12.4042 6.90188L9.79509 2.66211L7.186 6.90188L2.45703 8.20642L5.39226 11.6309V17.0121L10.1212 15.0553L14.5241 16.849L13.7087 12.4462L17.6224 8.20642L12.4042 6.90188Z" fill="#F64850"/>
</g>
<g clip-path="url(#clip1_803_1453)">
<path d="M32.8741 14.5321L28.0096 17.0897L28.9389 11.6726L24.998 7.83666L30.4364 7.04849L32.8686 2.12012L35.3009 7.04849L40.7392 7.83666L36.7984 11.6726L37.7277 17.0897L32.8741 14.5321Z" stroke="#F64850" stroke-width="1.57632" stroke-linecap="round" stroke-linejoin="round"/>
<path d="M35.3202 6.90188L32.7111 2.66211L30.102 6.90188L25.373 8.20642L28.3083 11.6309V17.0121L33.0372 15.0553L37.4401 16.849L36.6247 12.4462L40.5384 8.20642L35.3202 6.90188Z" fill="#F64850"/>
</g>
<g clip-path="url(#clip2_803_1453)">
<path d="M55.7902 14.5321L50.9256 17.0897L51.8549 11.6726L47.9141 7.83666L53.3524 7.04849L55.7846 2.12012L58.2169 7.04849L63.6552 7.83666L59.7144 11.6726L60.6437 17.0897L55.7902 14.5321Z" stroke="#F64850" stroke-width="1.57632" stroke-linecap="round" stroke-linejoin="round"/>
<path d="M58.2362 6.90188L55.6271 2.66211L53.018 6.90188L48.2891 8.20642L51.2243 11.6309V17.0121L55.9533 15.0553L60.3561 16.849L59.5408 12.4462L63.4544 8.20642L58.2362 6.90188Z" fill="#F64850"/>
</g>
<g clip-path="url(#clip3_803_1453)">
<path d="M78.7062 14.5321L73.8416 17.0897L74.7709 11.6726L70.8301 7.83666L76.2684 7.04849L78.7007 2.12012L81.1329 7.04849L86.5712 7.83666L82.6304 11.6726L83.5597 17.0897L78.7062 14.5321Z" stroke="#F64850" stroke-width="1.57632" stroke-linecap="round" stroke-linejoin="round"/>
<path d="M78.8693 6.04199V2.04199L75.9341 6.90188L71.2051 8.20642L74.1403 11.6309V17.0121L78.8693 15.0553V13.542V12.042V9.54199V6.04199Z" fill="#F64850"/>
</g>
<defs>
<clipPath id="clip0_803_1453">
<rect width="18.9159" height="18.9159" fill="white" transform="translate(0.5 0.541992)"/>
</clipPath>
<clipPath id="clip1_803_1453">
<rect width="18.9159" height="18.9159" fill="white" transform="translate(23.416 0.541992)"/>
</clipPath>
<clipPath id="clip2_803_1453">
<rect width="18.9159" height="18.9159" fill="white" transform="translate(46.332 0.541992)"/>
</clipPath>
<clipPath id="clip3_803_1453">
<rect width="18.9159" height="18.9159" fill="white" transform="translate(69.248 0.541992)"/>
</clipPath>
</defs>
</svg>
