<svg width="19" height="19" viewBox="0 0 19 19" fill="none" xmlns="http://www.w3.org/2000/svg">
<g clip-path="url(#clip0_803_1314)">
<path d="M7.16992 8.75C7.16992 9.34674 7.40697 9.91903 7.82893 10.341C8.25089 10.7629 8.82318 11 9.41992 11C10.0167 11 10.589 10.7629 11.0109 10.341C11.4329 9.91903 11.6699 9.34674 11.6699 8.75C11.6699 8.15326 11.4329 7.58097 11.0109 7.15901C10.589 6.73705 10.0167 6.5 9.41992 6.5C8.82318 6.5 8.25089 6.73705 7.82893 7.15901C7.40697 7.58097 7.16992 8.15326 7.16992 8.75Z" stroke="black" stroke-width="1.25" stroke-linecap="round" stroke-linejoin="round"/>
<path d="M13.6627 12.9925L10.4804 16.1748C10.1992 16.4558 9.81786 16.6136 9.4203 16.6136C9.02274 16.6136 8.64144 16.4558 8.36017 16.1748L5.17717 12.9925C4.33809 12.1534 3.76668 11.0843 3.53519 9.92043C3.3037 8.75655 3.42254 7.55017 3.87668 6.45383C4.33081 5.35749 5.09985 4.42044 6.08654 3.76116C7.07322 3.10189 8.23325 2.75 9.41992 2.75C10.6066 2.75 11.7666 3.10189 12.7533 3.76116C13.74 4.42044 14.509 5.35749 14.9632 6.45383C15.4173 7.55017 15.5361 8.75655 15.3047 9.92043C15.0732 11.0843 14.5018 12.1534 13.6627 12.9925Z" stroke="black" stroke-width="1.25" stroke-linecap="round" stroke-linejoin="round"/>
</g>
<defs>
<clipPath id="clip0_803_1314">
<rect width="18" height="18" fill="white" transform="translate(0.419922 0.5)"/>
</clipPath>
</defs>
</svg>
