<svg width="711" height="208" viewBox="0 0 711 208" fill="none" xmlns="http://www.w3.org/2000/svg">
<g opacity="0.78">
<path d="M634.4 380.536C634.4 545.381 509.501 678.955 355.501 678.955C201.5 678.955 76.6016 545.381 76.6016 380.536C76.6016 215.692 201.5 82.1172 355.501 82.1172C509.501 82.1172 634.4 215.692 634.4 380.536Z" stroke="#2C64D8"/>
<path d="M710.5 380.535C710.5 590.346 551.53 760.372 355.5 760.372C159.47 760.372 0.5 590.346 0.5 380.535C0.5 170.725 159.47 0.698242 355.5 0.698242C551.53 0.698242 710.5 170.725 710.5 380.535Z" stroke="#2C64D8"/>
<path d="M575.692 380.534C575.692 510.691 477.077 616.145 355.499 616.145C233.922 616.145 135.307 510.691 135.307 380.534C135.307 250.377 233.922 144.923 355.499 144.923C477.077 144.923 575.692 250.377 575.692 380.534Z" stroke="#2C64D8"/>
</g>
</svg>
