<svg width="11" height="10" viewBox="0 0 11 10" fill="none" xmlns="http://www.w3.org/2000/svg">
<path d="M9.07575 2.55237H8.0715V1.48653C8.0715 0.724578 7.4703 0.10498 6.70628 0.10498H4.1343C3.36987 0.10498 2.76884 0.724578 2.76884 1.48653V2.55237H1.76438C1.07993 2.55237 0.525391 3.08081 0.525391 3.76324V8.45547C0.525391 9.13767 1.07993 9.69064 1.76438 9.69064H9.07575C9.76005 9.69064 10.315 9.13766 10.315 8.45531V3.76324C10.315 3.08081 9.76005 2.55237 9.07575 2.55237ZM3.58463 1.48653C3.58463 1.20121 3.84813 0.920778 4.1343 0.920778H6.70628C6.99158 0.920778 7.25573 1.20121 7.25573 1.48653V2.55237H3.58463V1.48653ZM7.66365 7.03924H6.23595V8.46694H4.6044V7.03924H3.17673V5.40769H4.6044V3.97999H6.23595V5.40769H7.66365V7.03924Z" fill="#263238"/>
</svg>
