<svg width="1440" height="449" viewBox="0 0 1440 449" fill="none" xmlns="http://www.w3.org/2000/svg">
<mask id="mask0_273_13835" style="mask-type:alpha" maskUnits="userSpaceOnUse" x="0" y="0" width="1440" height="449">
<rect width="1440" height="449" fill="#E9E9E9" fill-opacity="0.23"/>
</mask>
<g mask="url(#mask0_273_13835)">
<g opacity="0.78">
<path d="M700.4 621.536C700.4 786.381 575.501 919.955 421.501 919.955C267.5 919.955 142.602 786.381 142.602 621.536C142.602 456.692 267.5 323.117 421.501 323.117C575.501 323.117 700.4 456.692 700.4 621.536Z" stroke="#2C64D8"/>
<path d="M776.5 621.535C776.5 831.346 617.53 1001.37 421.5 1001.37C225.47 1001.37 66.5 831.346 66.5 621.535C66.5 411.725 225.47 241.698 421.5 241.698C617.53 241.698 776.5 411.725 776.5 621.535Z" stroke="#2C64D8"/>
<path d="M641.692 621.534C641.692 751.691 543.077 857.145 421.499 857.145C299.922 857.145 201.307 751.691 201.307 621.534C201.307 491.377 299.922 385.923 421.499 385.923C543.077 385.923 641.692 491.377 641.692 621.534Z" stroke="#2C64D8"/>
</g>
</g>
</svg>
