<svg xmlns="http://www.w3.org/2000/svg" fill="none" viewBox="70.51666869300912 199.23208766233768 688.6322188449848 279.8961038961039" style="max-height: 500px" width="688.6322188449848" height="279.8961038961039">
<mask height="449" width="1440" y="0" x="0" maskUnits="userSpaceOnUse" style="mask-type:alpha" id="mask0_273_13835">
<rect fill-opacity="0.23" fill="#E9E9E9" height="449" width="1440"/>
</mask>
<g mask="url(#mask0_273_13835)">
<g opacity="0.78">
<path stroke="#2C64D8" d="M700.4 621.536C700.4 786.381 575.501 919.955 421.501 919.955C267.5 919.955 142.602 786.381 142.602 621.536C142.602 456.692 267.5 323.117 421.501 323.117C575.501 323.117 700.4 456.692 700.4 621.536Z"/>
<path stroke="#2C64D8" d="M776.5 621.535C776.5 831.346 617.53 1001.37 421.5 1001.37C225.47 1001.37 66.5 831.346 66.5 621.535C66.5 411.725 225.47 241.698 421.5 241.698C617.53 241.698 776.5 411.725 776.5 621.535Z"/>
<path stroke="#2C64D8" d="M641.692 621.534C641.692 751.691 543.077 857.145 421.499 857.145C299.922 857.145 201.307 751.691 201.307 621.534C201.307 491.377 299.922 385.923 421.499 385.923C543.077 385.923 641.692 491.377 641.692 621.534Z"/>
</g>
</g>
</svg>