<svg width="18" height="17" viewBox="0 0 18 17" fill="none" xmlns="http://www.w3.org/2000/svg">
<g clip-path="url(#clip0_254_7746)">
<path d="M11.0625 7.12505L14.1927 5.5603C14.2975 5.50794 14.4139 5.48322 14.5309 5.48849C14.648 5.49376 14.7617 5.52885 14.8614 5.59042C14.961 5.65199 15.0433 5.738 15.1004 5.8403C15.1574 5.9426 15.1874 6.05778 15.1875 6.17493V10.8252C15.1874 10.9423 15.1574 11.0575 15.1004 11.1598C15.0433 11.2621 14.961 11.3481 14.8614 11.4097C14.7617 11.4713 14.648 11.5063 14.5309 11.5116C14.4139 11.5169 14.2975 11.4922 14.1927 11.4398L11.0625 9.87505V7.12505Z" stroke="black" stroke-width="1.375" stroke-linecap="round" stroke-linejoin="round"/>
<path d="M2.8125 5.75C2.8125 5.38533 2.95737 5.03559 3.21523 4.77773C3.47309 4.51987 3.82283 4.375 4.1875 4.375H9.6875C10.0522 4.375 10.4019 4.51987 10.6598 4.77773C10.9176 5.03559 11.0625 5.38533 11.0625 5.75V11.25C11.0625 11.6147 10.9176 11.9644 10.6598 12.2223C10.4019 12.4801 10.0522 12.625 9.6875 12.625H4.1875C3.82283 12.625 3.47309 12.4801 3.21523 12.2223C2.95737 11.9644 2.8125 11.6147 2.8125 11.25V5.75Z" stroke="black" stroke-width="1.375" stroke-linecap="round" stroke-linejoin="round"/>
</g>
<defs>
<clipPath id="clip0_254_7746">
<rect width="16.5" height="16.5" fill="white" transform="translate(0.75 0.25)"/>
</clipPath>
</defs>
</svg>
